M48
METRIC,LZ,000.000
;FILE_FORMAT=3:3
;TYPE=PLATED
;Layer: Drill PTH
;EasyEDA v6.4.20.6, 2021-08-25T17:44:25--6:00
;0b233f2fb4364318bc2c10b70738dc44,10
;Gerber Generator version 0.2
;Holesize 1 = 0.915 mm
T01C0.915
;Holesize 2 = 1.000 mm
T02C1.000
;Holesize 3 = 1.016 mm
T03C1.016
;Holesize 4 = 1.200 mm
T04C1.200
%
G05
G90
T01
X010160Y082800
X010160Y085340
X010160Y087880
X010160Y090420
X010160Y092960
X010160Y095500
X010160Y098040
X010160Y100580
X033020Y082800
X033020Y085340
X033020Y087880
X033020Y090420
X033020Y092960
X033020Y095500
X033020Y098040
X033020Y100580
X087503Y102362
X075819Y102362
X093218Y105918
X081534Y105918
X075819Y120360
X087503Y120360
X078994Y105918
X067310Y105918
X075819Y096411
X087503Y096411
X087503Y078359
X075819Y078359
X093218Y081915
X081534Y081915
X067310Y081915
X078994Y081915
X067310Y129921
X078994Y129921
X093218Y129921
X081534Y129921
X087503Y126365
X075819Y126365
X075819Y072517
X087503Y072517
X087503Y054483
X075819Y054483
X093218Y057912
X081534Y057912
X067310Y057912
X078994Y057912
X075819Y048510
X087503Y048510
T02
X099949Y105845
X099949Y110925
X099949Y093871
X099949Y098951
X099949Y081897
X099949Y086977
X099949Y069923
X099949Y075003
X099949Y057948
X099949Y063028
X099949Y045970
X099949Y051050
X099949Y129794
X099949Y134874
X099949Y117820
X099949Y122900
T03
X050038Y096266
X047498Y096266
X044958Y096266
X042418Y096266
X039878Y096266
X052578Y096266
X055118Y096266
X057658Y096266
X062738Y096266
X060198Y096266
X050038Y072644
X047498Y072644
X044958Y072644
X042418Y072644
X039878Y072644
X052578Y072644
X055118Y072644
X057658Y072644
X062738Y072644
X060198Y072644
X050038Y049022
X047498Y049022
X044958Y049022
X042418Y049022
X039878Y049022
X052578Y049022
X055118Y049022
X057658Y049022
X062738Y049022
X060198Y049022
X050038Y119888
X047498Y119888
X044958Y119888
X042418Y119888
X039878Y119888
X052578Y119888
X055118Y119888
X057658Y119888
X062738Y119888
X060198Y119888
T04
X076661Y110366
X086661Y112165
X076661Y134314
X086661Y136114
X076661Y086417
X086661Y088217
X076661Y062468
X086661Y064268
M30
